<?xml version="1.0" standalone="no"?>
<!DOCTYPE svg PUBLIC "-//W3C//DTD SVG 1.1//EN" "http://www.w3.org/Graphics/SVG/1.1/DTD/svg11.dtd" >
<svg xmlns="http://www.w3.org/2000/svg">
<defs>
  <font id="jvf" horiz-adv-x="256">
    <font-face font-family="jvf"
      units-per-em="256" ascent="256"
      descent="0" />
    <missing-glyph horiz-adv-x="0" />
    <glyph glyph-name="api-3"
      unicode="&#xEA05;"
      horiz-adv-x="256" d="M84.1 127.84V128.06A44.06 44.06 0 0 0 172.22 128.06V127.84H252.32V144.08A4 4 0 0 1 248.8 148.08L217.12 152.04A91.2 91.2 0 0 1 208 174.04L227.6 199.24A4 4 0 0 1 227.28 204.58L204.62 227.22A4 4 0 0 1 199.34 227.54L174.08 207.88A91.32 91.32 0 0 1 152.14 216.96L148.14 248.68A4 4 0 0 1 144.18 252.2H112.14A4 4 0 0 1 108.18 248.74L104.18 216.96A90.83999999999999 90.83999999999999 0 0 1 82.24 207.88L56.98 227.48A4 4 0 0 1 51.7 227.16L29.04 204.52A4 4 0 0 1 28.72 199.24L48.32 174.04A91.42 91.42 0 0 1 39.24 152.04L7.52 148.08A4 4 0 0 1 4 144.08V127.84zM224.28 83.78A15.86 15.86 0 0 1 216.16 81.54L196.24 101.46V119.82H188.24V99.8A4 4 0 0 1 189.4 96.98L210.5 75.88A15.86 15.86 0 0 1 208.26 67.76A16.02 16.02 0 1 1 224.28 83.78zM66.92 96.98A4 4 0 0 1 68.08 99.8V119.82H60.08V101.46L40.16 81.54A15.86 15.86 0 0 1 32.04 83.78A16.02 16.02 0 1 1 48.06 67.76A15.86 15.86 0 0 1 45.82 75.88zM92.12 85.44L69.26 62.58A4 4 0 0 1 68.08 59.76V43.14A16.02 16.02 0 1 1 76.1 43.14V58.1L98.96 80.96A4 4 0 0 1 100.12 83.78V119.84H92.12zM188.24 43.14V59.76A4 4 0 0 1 187.06 62.58L164.2 85.44V119.84H156.2V83.78A4 4 0 0 1 157.36 80.96L180.22 58.1V43.14A16.02 16.02 0 1 1 188.24 43.14zM132.16 35.14V119.84H124.16V35.14A16.02 16.02 0 1 1 132.16 35.14z" />
    <glyph glyph-name="ruler-pencil-1-3"
      unicode="&#xEA0A;"
      horiz-adv-x="256" d="M200.26 67.76H240.3V203.94H200.26zM240.3 211.94V248A4 4 0 0 1 236.3 252H156.2A4 4 0 0 1 152.18 248V211.94H240.3zM152.18 203.94H192.24V67.76H152.18zM199.44 4.12L240.3 59.76H152.2L193.04 4.12A4 4 0 0 1 199.44 4.12zM108.14 252H20.02C17.62 252 16.02 250.4 16.02 248V211.94H52.06C54.46 211.94 56.06 210.34 56.06 207.94S54.46 203.94 52.06 203.94H16.02V179.9H36.04C38.44 179.9 40.04 178.3 40.04 175.9S38.44 171.9 36.04 171.9H16.02V147.86H52.06C54.46 147.86 56.06 146.26 56.06 143.86S54.46 139.86 52.06 139.86H16.02V115.82H36.04C38.44 115.82 40.04 114.22 40.04 111.82S38.44 107.82 36.04 107.82H16.02V83.78H52.06C54.46 83.78 56.06 82.18 56.06 79.78S54.46 75.78 52.06 75.78H16.02V51.74H36.04C38.44 51.74 40.04 50.14 40.04 47.74S38.44 43.74 36.04 43.74H16.02V7.7C16.02 5.3 17.62 3.7 20.02 3.68H108.14C110.54 3.68 112.14 5.28 112.14 7.7V247.9800000000001C112.14 250.3800000000001 110.54 251.9800000000001 108.14 252.0000000000001zM86.08 215.94C80.48 215.94 76.04 220.32 76.1 225.98S80.54 236.02 86.14 235.98S96.18 231.6 96.12 225.94S91.68 215.9 86.08 215.94z" />
    <glyph glyph-name="data-download"
      unicode="&#xEA10;"
      horiz-adv-x="256" d="M234.6666666666667 90.6666666666667A5.333333333333333 5.333333333333333 0 0 1 229.3333333333333 85.3333333333333V42.6666666666667A16 16 0 0 0 213.3333333333333 26.6666666666667H42.6666666666667A16 16 0 0 0 26.6666666666667 42.6666666666667V85.3333333333333A5.333333333333333 5.333333333333333 0 0 1 16 85.3333333333333V42.6666666666667A26.698666666666668 26.698666666666668 0 0 1 42.6666666666667 16H213.3333333333333A26.698666666666668 26.698666666666668 0 0 1 240 42.6666666666667V85.3333333333333A5.333333333333333 5.333333333333333 0 0 1 234.6666666666667 90.6666666666667zM123.7333333333333 76.8A5.333333333333333 5.333333333333333 0 0 1 132.2666666666667 76.8L180.2666666666667 140.8A5.333333333333333 5.333333333333333 0 0 1 176 149.3333333333334H138.6666666666667V229.3333333333334A10.666666666666666 10.666666666666666 0 0 1 117.3333333333333 229.3333333333334V149.3333333333334H80A5.333333333333333 5.333333333333333 0 0 1 75.7333333333333 140.8z" />
    <glyph glyph-name="d-remove"
      unicode="&#xEA14;"
      horiz-adv-x="256" d="M202.6666666666667 16C201.30208 16 199.9374933333333 16.5208533333333 198.89584 17.5625066666667L128 88.4583466666667L57.10416 17.5625066666667C55.0208533333333 15.4792 51.6458133333333 15.4792 49.5625066666667 17.5625066666667L17.5625066666667 49.5625066666667C15.4792 51.6458133333333 15.4792 55.0208533333333 17.5625066666667 57.10416L88.4583466666667 128L17.5625066666667 198.89584C15.4792 200.9791466666667 15.4792 204.3541866666667 17.5625066666667 206.4374933333334L49.5625066666667 238.4374933333334C51.6458133333333 240.5208 55.0208533333333 240.5208 57.10416 238.4374933333334L128 167.5416533333333L198.89584 238.4374933333334C200.9791466666666 240.5208 204.3541866666666 240.5208 206.4374933333333 238.4374933333334L238.4374933333333 206.4374933333334C240.5208 204.3541866666667 240.5208 200.9791466666667 238.4374933333333 198.89584L167.5416533333333 128L238.4374933333333 57.10416C240.5208 55.0208533333334 240.5208 51.6458133333333 238.4374933333333 49.5625066666667L206.4374933333333 17.5625066666667C205.39584 16.5208533333333 204.0312533333333 16 202.6666666666667 16z" />
    <glyph glyph-name="d-delete"
      unicode="&#xEA15;"
      horiz-adv-x="256" d="M245.3333333333333 101.3333333333333H10.6666666666667C7.7187733333333 101.3333333333333 5.3333333333333 103.7187733333333 5.3333333333333 106.6666666666667V149.3333333333334C5.3333333333333 152.2812266666667 7.7187733333333 154.6666666666667 10.6666666666667 154.6666666666667H245.3333333333333C248.2812266666667 154.6666666666667 250.6666666666667 152.2812266666667 250.6666666666667 149.3333333333334V106.6666666666667C250.6666666666667 103.7187733333333 248.2812266666667 101.3333333333333 245.3333333333333 101.3333333333333z" />
    <glyph glyph-name="cursor-menu"
      unicode="&#xEA16;"
      horiz-adv-x="256" d="M60 120C59.952 120 59.908 120 59.86 120.004C58.252 120.06 56.832 121.076 56.264 122.584L12.264 238.584C11.712 240.032 12.048 241.672 13.128 242.784S15.848 244.284 17.304 243.78L133.304 203.78C134.828 203.256 135.888 201.868 135.992 200.26C136.096 198.656 135.232 197.14 133.788 196.42L87.04 173.048L63.628 122.32C62.976 120.904 61.556 120 60 120zM248 100H128C125.792 100 124 101.792 124 104V132C124 134.208 125.792 136 128 136H248C250.208 136 252 134.208 252 132V104C252 101.792 250.208 100 248 100zM248 56H128C125.792 56 124 57.792 124 60V88C124 90.208 125.792 92 128 92H248C250.208 92 252 90.208 252 88V60C252 57.792 250.208 56 248 56zM248 12H128C125.792 12 124 13.792 124 16V44C124 46.208 125.792 48 128 48H248C250.208 48 252 46.208 252 44V16C252 13.792 250.208 12 248 12z" />
    <glyph glyph-name="app-store"
      unicode="&#xEA19;"
      horiz-adv-x="256" d="M52.92 254.96L127.76 241.76L111.76 151.16L21.16 167.16L37.16 257.76L52.92 254.96zM258.96 183.36L224.8 232.12A15.920000000000002 15.920000000000002 0 0 1 202.64 236L153.88 201.88A15.920000000000002 15.920000000000002 0 0 1 149.96 179.72L184.12 130.96A15.920000000000002 15.920000000000002 0 0 1 206.28 127.04L255.04 161.2A15.920000000000002 15.920000000000002 0 0 1 258.96 183.36zM160 102.04L234.84 88.84L218.84 -1.76L128.24 14.24L144.24 104.84L160 102.04zM30 124.96L104.84 111.76L88.84 21.16L-1.76 37.16L14.24 127.76L30 124.96z" />
    <glyph glyph-name="hacker"
      unicode="&#xEA1A;"
      horiz-adv-x="256" d="M196 100H60A4 4 0 0 1 56 96V8A4 4 0 0 1 60 4H196A4 4 0 0 1 200 8V96A4 4 0 0 1 196 100zM128 40A12 12 0 1 0 140 52A12 12 0 0 0 128 40zM241.5 56.9L230.66 111.1A36 36 0 0 1 214.2 134.72L195.44 146.24A111.71999999999998 111.71999999999998 0 0 0 181.44 121.6A4 4 0 1 0 175.04 126.4A104.78 104.78 0 0 1 188.56 150.44A98.92 98.92 0 0 1 196 184C196 210.06 154.06 252.0000000000001 128 252.0000000000001S60 210.06 60 184A98.94 98.94 0 0 1 67.42 150.44A104.78 104.78 0 0 1 80.96 126.4A4 4 0 0 0 74.56 121.6A111.71999999999998 111.71999999999998 0 0 0 60.56 146.24L41.8 134.72A36 36 0 0 1 25.34 111.1L14.5 56.9A24 24 0 0 1 23.3 33.2600000000001L48 14.04V96.0000000000001A12 12 0 0 0 60 108.0000000000001H196A12 12 0 0 0 208 96.0000000000001V14.0400000000001L232.7 33.2400000000001A24 24 0 0 1 241.5 56.9000000000001zM171.64 169.66C168.9 142.96 149.34 120 128 120S87.1 142.96 84.36 169.66L81.96 168.46A4 4 0 0 0 78.32 175.58L86.18 179.58L110.26 191.86A39.24 39.24 0 0 0 145.7 191.86L169.8 179.58L177.66 175.58A4 4 0 0 0 174.02 168.46z" />
    <glyph glyph-name="cogwheel"
      unicode="&#xEA1F;"
      horiz-adv-x="256" d="M248.496 147.968L216.832 151.924A91.256 91.256 0 0 1 207.732 173.896L227.332 199.096A4 4 0 0 1 227 204.38L204.364 226.992A4 4 0 0 1 199.08 227.32L173.88 207.72A91.29999999999998 91.29999999999998 0 0 1 151.928 216.8L147.968 248.484A4 4 0 0 1 144 252H112A4 4 0 0 1 108.032 248.496L104.072 216.8A90.852 90.852 0 0 1 82.108 207.7L56.908 227.3A4 4 0 0 1 51.624 226.972L29.008 204.364A4 4 0 0 1 28.676 199.08L48.276 173.88A91.396 91.396 0 0 1 39.2 151.924L7.516 147.968A4 4 0 0 1 4 144V112A4 4 0 0 1 7.504 108.032L39.188 104.076A91.244 91.244 0 0 1 48.284 82.104L28.684 56.904A4 4 0 0 1 29.012 51.62L51.64 28.992A4 4 0 0 1 56.924 28.664L82.124 48.264A91.348 91.348 0 0 1 104.088 39.168L108.048 7.5A4 4 0 0 1 112 4H144A4 4 0 0 1 147.968 7.504L151.924 39.168A91.028 91.028 0 0 1 173.896 48.268L199.096 28.668A4 4 0 0 1 204.38 28.996L227.008 51.624A4 4 0 0 1 227.34 56.908L207.74 82.108A91.376 91.376 0 0 1 216.836 104.08L248.504 108.036A4 4 0 0 1 252 112V144A4 4 0 0 1 248.496 147.968zM128 84A44 44 0 1 0 172 128A44 44 0 0 0 128 84z" />
    <glyph glyph-name="js-console"
      unicode="&#xEA20;"
      horiz-adv-x="256" d="M224 236H32A16 16 0 0 1 16 220V28A16 16 0 0 1 32 12H224A16 16 0 0 1 240 28V220A16 16 0 0 1 224 236zM65.172 63.516L59.516 69.172A4 4 0 0 0 59.516 74.828L108.688 124L59.516 173.172A4 4 0 0 0 59.516 178.828L65.172 184.484A4 4 0 0 0 70.828 184.484L128.484 126.828A4 4 0 0 0 128.484 121.172L70.828 63.516A4 4 0 0 0 65.172 63.516zM196 68A4 4 0 0 0 192 64H116A4 4 0 0 0 112 68V76A4 4 0 0 0 116 80H192A4 4 0 0 0 196 76zM196 120A4 4 0 0 0 192 116H152A4 4 0 0 0 148 120V128A4 4 0 0 0 152 132H192A4 4 0 0 0 196 128zM196 172A4 4 0 0 0 192 168H116A4 4 0 0 0 112 172V180A4 4 0 0 0 116 184H192A4 4 0 0 0 196 180z" />
    <glyph glyph-name="send"
      unicode="&#xEA21;"
      horiz-adv-x="256" d="M242.576 239.064A4 4 0 0 1 238.54 239.724L14.54 151.724A4 4 0 0 1 13.684 144.74L49.852 119.02L141.332 161.388L68 106.112V20A4 4 0 0 1 74.424 16.8L131.944 60.64L193.684 16.74A3.968 3.968 0 0 1 196 16A4.064 4.064 0 0 1 197.468 16.276A4 4 0 0 1 199.916 19.204L243.916 235.204A4 4 0 0 1 242.576 239.064z" />
    <glyph glyph-name="list"
      unicode="&#xEA22;"
      horiz-adv-x="256" d="M220 252H36C31.58 252 28 248.42 28 244V12C28 7.58 31.58 4 36 4H220C224.42 4 228 7.58 228 12V244C228 248.42 224.42 252 220 252zM76 60C69.372 60 64 65.372 64 72S69.372 84 76 84S88 78.628 88 72S82.628 60 76 60zM98.828 141.172L74.828 117.172C74.048 116.392 73.024 116 72 116S69.952 116.392 69.172 117.172L61.172 125.172C59.608 126.736 59.608 129.264 61.172 130.828S65.264 132.392 66.828 130.828L72 125.656L93.172 146.828C94.736 148.392 97.264 148.392 98.828 146.828S100.392 142.736 98.828 141.172zM98.828 197.172L74.828 173.172C74.048 172.392 73.024 172 72 172S69.952 172.392 69.172 173.172L61.172 181.172C59.608 182.736 59.608 185.264 61.172 186.828S65.264 188.392 66.828 186.828L72 181.656L93.172 202.828C94.736 204.392 97.264 204.392 98.828 202.828S100.392 198.736 98.828 197.172zM188 68H124C121.792 68 120 69.792 120 72S121.792 76 124 76H188C190.208 76 192 74.208 192 72S190.208 68 188 68zM188 124H124C121.792 124 120 125.792 120 128S121.792 132 124 132H188C190.208 132 192 130.208 192 128S190.208 124 188 124zM188 180H124C121.792 180 120 181.792 120 184S121.792 188 124 188H188C190.208 188 192 186.208 192 184S190.208 180 188 180z" />
    <glyph glyph-name="ladybug"
      unicode="&#xEA23;"
      horiz-adv-x="256" d="M124 192.18C106.544 193.576 86.7 203.456 81.304 208.248C75.932 204.464 70.956 200.1 66.42 195.236L42.828 218.828C41.264 220.392 38.736 220.392 37.172 218.828S35.608 214.736 37.172 213.172L61.168 189.176C47.156 171.568 38.376 148.736 36.448 124H8C5.788 124 4 122.212 4 120S5.788 116 8 116H36.064C36.052 115.236 36 114.48 36 113.716C36 87.996 43.48 64.336 55.952 45.608L29.172 18.828C27.608 17.264 27.608 14.736 29.172 13.172C29.952 12.392 30.976 12 32 12S34.048 12.392 34.828 13.172L60.688 39.032C76.648 18.588 99.048 5.408 124 4.128V192.18zM90 156C97.732 156 104 149.732 104 142S97.732 128 90 128S76 134.268 76 142S82.268 156 90 156zM84 64C72.956 64 64 72.956 64 84S72.956 104 84 104S104 95.044 104 84S95.044 64 84 64zM248 124H219.552C217.628 148.752 208.848 171.584 194.84 189.184L218.828 213.172C220.392 214.736 220.392 217.264 218.828 218.828S214.736 220.392 213.172 218.828L189.588 195.244C185.048 200.104 180.076 204.472 174.7 208.256C169.308 203.464 149.464 193.576 132 192.184V4.132C156.952 5.416 179.352 18.596 195.312 39.036L221.172 13.176C221.952 12.392 222.976 12 224 12S226.048 12.392 226.828 13.172C228.392 14.736 228.392 17.264 226.828 18.828L200.048 45.608C212.52 64.336 220 87.996 220 113.716C220 114.484 219.948 115.236 219.932 116H248C250.212 116 252 117.788 252 120S250.212 124 248 124zM166 156C173.732 156 180 149.732 180 142S173.732 128 166 128S152 134.268 152 142S158.268 156 166 156zM172 64C160.956 64 152 72.956 152 84S160.956 104 172 104S192 95.044 192 84S183.044 64 172 64zM174.828 250.828C173.264 252.392 170.736 252.392 169.172 250.828L153.676 235.332C146.62 240.76 137.648 244 128 244S109.38 240.76 102.324 235.332L86.828 250.828C85.264 252.392 82.736 252.392 81.172 250.828S79.608 246.736 81.172 245.172L96.516 229.828C92.4 225.084 89.424 219.408 88.088 213.128C93.764 209.668 111.176 200 128 200S162.236 209.668 167.912 213.124C166.576 219.404 163.6 225.084 159.484 229.824L174.828 245.168C176.392 246.736 176.392 249.264 174.828 250.828z" />
    <glyph glyph-name="logo-github"
      unicode="&#xEA24;"
      horiz-adv-x="256" d="M128 252.8C57.2 252.8 0 195.6 0 124.8C0 68.4 36.8 20.4 87.6 3.2C94 2 96.4 6 96.4 9.2C96.4 12.4 96.4 20.4 96.4 30.8C60.8 23.2 53.2 48 53.2 48C47.2 62.8 38.8 66.8 38.8 66.8C27.2 74.8 39.6 74.4 39.6 74.4C52.4 73.6 59.2 61.2 59.2 61.2C70.8 41.6 89.2 47.2 96.4 50.4C97.6 58.8 100.8 64.4 104.4 67.6C76 70.8 46 82 46 130.8C46 144.8 50.8 156 59.2 165.2C58 168.4 53.6 181.6 60.4 199.2C60.4 199.2 71.2 202.8 95.6 186C106 188.8 116.8 190.4 127.6 190.4C138.4 190.4 149.6 188.8 159.6 186C184 202.4 194.8 199.2 194.8 199.2C201.6 181.6 197.2 168.4 196 165.2C204.4 156.4 209.2 144.8 209.2 130.8C209.2 81.6 179.2 70.8 150.8 67.6C155.2 63.6 159.6 56 159.6 44C159.6 26.8 159.6 13.2 159.6 8.8C159.6 5.2 162 1.2 168.4 2.8C219.2 20.4 256 68.4 256 124.8C256 195.6 198.8 252.8 128 252.8z" />
    <glyph glyph-name="window-paragraph"
      unicode="&#xEA25;"
      horiz-adv-x="256" d="M2 128L2 18L128 18L254 18L254 128L254 238L128 238L2 238L2 128M242 204L242 182L128 182L14 182L14 204L14 226L128 226L242 226L242 204M34 204L34 198L48 198L62 198L62 204L62 210L48 210L34 210L34 204M74 204L74 198L88 198L102 198L102 204L102 210L88 210L74 210L74 204M166 204L166 198L194 198L222 198L222 204L222 210L194 210L166 210L166 204M242 100L242 30L128 30L14 30L14 100L14 170L128 170L242 170L242 100M34 100L34 62L72 62L110 62L110 100L110 138L72 138L34 138L34 100M126 132L126 126L174 126L222 126L222 132L222 138L174 138L126 138L126 132M98 100L98 74L72 74L46 74L46 100L46 126L72 126L98 126L98 100M126 100L126 94L174 94L222 94L222 100L222 106L174 106L126 106L126 100M126 68L126 62L156 62L186 62L186 68L186 74L156 74L126 74L126 68" />
    <glyph glyph-name="l-search"
      unicode="&#xEA26;"
      horiz-adv-x="256" d="M145.916 60H96V76H4A4.032 4.032 0 0 1 0 71.932A36.04 36.04 0 0 1 36 36H172.032A52.29600000000001 52.29600000000001 0 0 0 145.916 60zM224 204V124.904A52.4 52.4 0 0 0 232 117.18V208A20 20 0 0 1 212 228H44A20 20 0 0 1 24 208V84H32V204A4 4 0 0 0 36 208H220A4 4 0 0 0 224 204zM192 124A40 40 0 1 1 214.036 50.652L243.516 21.172A4 4 0 0 1 249.172 21.172L254.828 26.828A4 4 0 0 1 254.828 32.484L225.348 61.964A39.96 39.96 0 0 1 192 124zM192 52A32 32 0 1 0 224 84A32.036 32.036 0 0 0 192 52z" />
    <glyph glyph-name="c-question"
      unicode="&#xEA27;"
      horiz-adv-x="256" d="M128 248A120 120 0 1 1 248 128A120.13599999999998 120.13599999999998 0 0 1 128 248zM120 52A12 12 0 1 0 132 64A12 12 0 0 0 120 52zM160.4 144.372A139.328 139.328 0 0 0 143.896 128.32A62.13199999999998 62.13199999999998 0 0 1 130.46 113.92A35.48 35.48 0 0 1 127.188 95.784H114.212A54.296 54.296 0 0 0 117.836 120.108A51.892 51.892 0 0 0 131.32 136.16C146.832 149.276 152.152 155.048 152.152 167.66C152.152 182.532 141.644 189.096 126.592 189.096A68.136 68.136 0 0 1 93.792 180.44L87.856 194.04A84.48 84.48 0 0 0 127.6 204Q146.8 204 157.488 194.54A33.792 33.792 0 0 0 168.156 167.872A36.084 36.084 0 0 0 160.4 144.372z" />
    <glyph glyph-name="logo-codepen"
      unicode="&#xEA28;"
      horiz-adv-x="256" d="M256 168.4C256 168.4 256 168.8 256 168.8C256 169.2 256 169.6 256 169.6C256 169.6 256 170 256 170C256 170.4 256 170.4 255.6 170.8C255.6 170.8 255.6 171.2 255.2 171.2C255.2 171.6 254.8 171.6 254.8 172C254.8 172 254.4 172.4 254.4 172.4C254.4 172.8 254 172.8 254 173.2C254 173.2 253.6 173.6 253.6 173.6C253.6 174 253.2 174 253.2 174C253.2 174 252.8 174.4 252.8 174.4C252.4 174.4 252.4 174.8000000000001 252 174.8000000000001C252 174.8000000000001 251.6 175.2000000000001 251.6 175.2000000000001C251.6 175.2000000000001 251.6 175.2000000000001 251.6 175.2000000000001L134 254C130.4 256.4 125.6 256.4 121.6 254L4.8 176C4.8 176 4.8 176 4.8 176C4.8 176 4.4 175.6 4.4 175.6C4 175.6 4 175.2 3.6 175.2C3.6 175.2 3.2 174.8 3.2 174.8C3.2 174.8 2.8 174.4 2.8 174.4C2.8 174.4 2.4 174 2.4 174C2.4 173.6 2 173.6 2 173.2C2 173.2 1.6 172.8 1.6 172.8C1.6 172.4 1.2 172.4 1.2 172C1.2 172 1.2 171.6 0.8 171.6C0.8 171.2 0.8 171.2 0.4 170.8C0.4 170.8 0.4 170.4 0.4 170.4C0.4 170 0.4 169.6 0.4 169.6C0.4 169.6 0.4 169.2 0.4 169.2C0.4 168.8 0.4 168.4 0.4 167.6V89.6C0.4 89.2 0.4 88.8 0.4 88C0.4 88 0.4 87.6 0.4 87.6C0.4 87.2 0.4 86.8 0.4 86.8C0.4 86.8 0.4 86.4 0.4 86.4C0.4 85.9999999999999 0.4 85.9999999999999 0.8 85.5999999999999C0.8 85.5999999999999 0.8 85.1999999999999 1.2 85.1999999999999C1.2 84.7999999999999 1.6 84.7999999999999 1.6 84.3999999999999C1.6 84.3999999999999 2 83.9999999999999 2 83.9999999999999C2 83.5999999999999 2.4 83.5999999999999 2.4 83.1999999999999C2.4 83.1999999999999 2.8 82.7999999999999 2.8 82.7999999999999C2.8 82.3999999999999 3.2 82.3999999999999 3.2 82.3999999999999C3.2 82.3999999999999 3.6 81.9999999999999 3.6 81.9999999999999C3.6 81.9999999999999 4 81.5999999999999 4.4 81.5999999999999C4.4 81.5999999999999 4.8 81.1999999999999 4.8 81.1999999999999C4.8 81.1999999999999 4.8 81.1999999999999 4.8 81.1999999999999L121.6 3.1999999999999C123.6 1.9999999999999 125.6 1.1999999999999 127.6 1.1999999999999C129.6 1.1999999999999 132 1.9999999999999 133.6 3.1999999999999L251.2 80C251.2 80 251.2 80 251.2 80C251.2 80 251.6 80.4 251.6 80.4C252 80.4 252 80.8 252.4 80.8C252.4 80.8 252.8 81.2 252.8 81.2C252.8 81.2 253.2 81.6 253.2 81.6C253.2 81.6 253.6 82 253.6 82C253.6 82.4 254.0000000000001 82.4 254.0000000000001 82.8C254.0000000000001 82.8 254.4000000000001 83.2000000000001 254.4000000000001 83.2000000000001C254.4000000000001 83.6000000000001 254.8000000000001 83.6000000000001 254.8000000000001 84.0000000000001C254.8000000000001 84.0000000000001 254.8000000000001 84.4000000000001 255.2000000000001 84.4000000000001C255.2000000000001 84.8000000000001 255.2000000000001 84.8000000000001 255.6000000000001 85.2000000000001C255.6000000000001 85.2000000000001 255.6000000000001 85.6000000000001 255.6000000000001 85.6000000000001C255.6000000000001 86.0000000000001 255.6000000000001 86.4000000000001 255.6000000000001 86.4000000000001C255.6000000000001 86.4000000000001 255.6000000000001 86.8000000000001 255.6000000000001 86.8000000000001C255.6000000000001 87.2000000000001 255.6000000000001 87.6000000000001 255.6000000000001 88.4000000000001V167.2C256 167.6 256 168 256 168.4zM139.2 224.4L225.2 166.8L186.8 141.2L139.2 173.2V224.4zM116.8 224.4V173.2L69.2 141.2L30.8 166.8L116.8 224.4zM22 146.4L49.6 128L22 109.6V146.4zM116.8 31.6L30.8 89.2L69.2 114.8L116.8 82.8V31.6zM128 102L89.2 128L128 154L166.8 128L128 102zM139.2 31.6V82.8L186.8 114.8L225.2 89.2L139.2 31.6zM234 109.6L206.4 128L234 146.4V109.6z" />
    <glyph glyph-name="file-sql"
      unicode="&#xEA29;"
      horiz-adv-x="256" d="M34.923 248.077L32 245.154L32 192.165L32 139.177L21.025 138.838C11.185 138.535 9.815 138.265 7.775 136.223L5.5 133.946L5.199 85.723C5.034 59.2 5.172 36.012 5.505 34.194C6.656 27.921 8.64 27 21 27L32 27L32 16.146C32 6.011 32.162 5.117 34.452 2.646L36.905 0L130.341 0C220.786 0 223.854 0.061 226.139 1.908C228.305 3.658 228.541 4.753 229 15.158L229.5 26.5L240.842 27C251.247 27.459 252.342 27.695 254.092 29.861C255.913 32.114 256 34.524 256 82.688L256 133.154L253.077 136.077C250.215 138.939 249.934 139 239.577 139L229 139L229 160.734L229 182.468L194.734 216.734L160.468 251L99.157 251L37.846 251L34.923 248.077M149 207.149C149 178.435 149.525 173.859 153.039 171.979C154.112 171.405 166.887 171 183.934 171L213 171L213 155L213 139L130.5 139L48 139L48 187L48 235L98.5 235L149 235L149 207.149M183.5 205L201.479 187L183.24 187L165 187L165 205C165 214.9 165.117 223 165.26 223C165.404 223 173.611 214.9 183.5 205M240 83L240 43L130.5 43L21 43L21 83L21 123L130.5 123L240 123L240 83M85.942 103.052C81.385 101.669 79.051 100 77.51 97.02C73.968 90.169 77.165 83.238 85.877 78.885C93.046 75.303 94.727 73.581 93.042 71.55C91.413 69.588 86.477 69.568 81 71.5C78.662 72.325 76.58 73 76.374 73C76.168 73 76 70.794 76 68.098C76 63.498 76.194 63.128 79.149 62.098C83.587 60.551 93.427 60.734 97.51 62.44C103.764 65.053 106.865 73.766 103.735 79.935C103.039 81.308 99.338 84.07 95.25 86.268C90.166 89.002 88 90.733 88 92.064C88 94.726 91.595 95.347 97.188 93.653L101.876 92.233L103.438 96.137C104.297 98.284 105 100.239 105 100.481C105 100.724 102.668 101.615 99.818 102.461C94.259 104.112 90.03 104.292 85.942 103.052M124.5 103.125C114.474 100.525 109.201 91.924 110.278 79.928C111.241 69.203 117.159 62.317 126.332 61.252C129.883 60.839 131.066 60.045 134.323 55.884L138.146 51L145.247 51L152.349 51L149.944 53.75C148.621 55.262 146.229 57.938 144.627 59.695L141.715 62.889L144.855 65.531C151.205 70.874 152.839 86.176 147.983 94.817C146.763 96.988 144.091 99.705 142.046 100.854C137.909 103.179 129.102 104.319 124.5 103.125M158.23 82.25L158.5 61.5L172.306 61.221L186.112 60.943L185.806 65.721L185.5 70.5L177.75 70.792L170 71.084L170 87.042L170 103L163.98 103L157.959 103L158.23 82.25M136.727 91.29C137.992 89.356 138.498 86.609 138.494 81.698C138.488 75.405 138.248 74.61 135.688 72.408C132.134 69.351 128.565 69.344 125.521 72.388C121.44 76.469 120.914 86.167 124.477 91.606C125.744 93.538 126.905 94 130.5 94C134.24 94 135.238 93.566 136.727 91.29M213 21.5L213 16L130.5 16L48 16L48 21.5L48 27L130.5 27L213 27L213 21.5" />
    <glyph glyph-name="d-remove-1"
      unicode="&#xEA2A;"
      horiz-adv-x="256" d="M221.34 68.604L161.94 128L221.34 187.396A4 4 0 0 1 221.34 193.052L193.052 221.34A4 4 0 0 1 187.396 221.34L128 161.94L68.604 221.34A4 4 0 0 1 62.948 221.34L34.66 193.052A4 4 0 0 1 34.66 187.396L94.06 128L34.66 68.604A4 4 0 0 1 34.66 62.948L62.948 34.66A4 4 0 0 1 68.604 34.66L128 94.06L187.396 34.66A4 4 0 0 1 193.052 34.66L221.34 62.948A4 4 0 0 1 221.34 68.604z" />
    <glyph glyph-name="d-delete-1"
      unicode="&#xEA2B;"
      horiz-adv-x="256" d="M20 152H236A4 4 0 0 0 240 148V108A4 4 0 0 0 236 104H20A4 4 0 0 0 16 108V148A4 4 0 0 0 20 152z" />
    <glyph glyph-name="athletics"
      unicode="&#xEA2C;"
      horiz-adv-x="256" d="M172 208A24 24 0 0 1 220 208A24 24 0 0 1 172 208M80.92 108.596L24.308 43.896A12.24 12.24 0 0 1 42.448 27.46L98.372 87.06A31.804 31.804 0 0 0 80.92 108.604zM239.86 146.368H239.86A10.504 10.504 0 0 1 227.576 153.288L197.272 146.4L176.76 180A23.884000000000004 23.884000000000004 0 0 1 163.108 190.932L115.964 207.332A12 12 0 0 1 103.516 204.488L78.476 179.448A10.528 10.528 0 0 1 92.56 163.848L115.152 182.2L131.672 176.42L93.672 131.52A24 24 0 0 1 96.472 97.7A23.748 23.748 0 0 1 105.304 93.044L136.548 84.116L113.832 48.444A12.4 12.4 0 0 1 134.232 34.34L170.972 83.332A14.399999999999999 14.399999999999999 0 0 1 173.972 91.012A14.048 14.048 0 0 1 163.812 105.488L126.376 116L146.336 119.428L169.168 146.4L181.752 125.748A12 12 0 0 1 195.796 120.608L233.2200000000001 133.084A10.496000000000002 10.496000000000002 0 0 1 239.86 146.368z" />
    <glyph glyph-name="directions_run"
      unicode="&#xEA2D;"
      horiz-adv-x="256" d="M143.8933333333333 197.5466666666667C155.6266666666667 197.5466666666667 165.2266666666667 207.1466666666667 165.2266666666667 218.88S155.6266666666667 240.2133333333334 143.8933333333333 240.2133333333334S122.56 230.6133333333334 122.56 218.88S132.16 197.5466666666667 143.8933333333333 197.5466666666667zM105.4933333333333 49.28L116.16 96.2133333333334L138.56 74.88V10.88H159.8933333333333V90.88L137.4933333333333 112.2133333333334L143.8933333333333 144.2133333333334C157.76 128.2133333333334 179.0933333333333 117.5466666666667 202.56 117.5466666666667V138.8800000000001C182.2933333333333 138.8800000000001 165.2266666666666 149.5466666666667 156.6933333333333 164.48L146.0266666666667 181.5466666666667C141.76 187.9466666666667 135.36 192.2133333333334 127.8933333333334 192.2133333333334C124.6933333333334 192.2133333333334 122.56 191.1466666666667 119.36 191.1466666666667L63.8933333333334 167.68V117.5466666666667H85.2266666666667V153.8133333333333L104.4266666666667 161.28L87.36 74.88L35.0933333333334 85.5466666666667L30.8266666666667 64.2133333333333L105.4933333333333 49.28z" />
    <glyph glyph-name="backup"
      unicode="&#xEA2E;"
      horiz-adv-x="256" d="M238.828 194.828L194.828 238.828A4 4 0 0 1 192 240H64A4 4 0 0 1 61.172 238.828L17.172 194.828A4 4 0 0 1 16 192V40A24.024 24.024 0 0 1 40 16H216A24.024 24.024 0 0 1 240 40V192A4 4 0 0 1 238.828 194.828zM174.948 101.296L130.948 53.296A4 4 0 0 0 125.052 53.296L81.052 101.296A4 4 0 0 0 84 108H112V156A4 4 0 0 0 116 160H140A4 4 0 0 0 144 156V108H172A4 4 0 0 0 174.948 101.296zM29.656 196L65.656 232H190.344L226.344 196z" />
    <glyph glyph-name="question-mark"
      unicode="&#xEA2F;"
      horiz-adv-x="256" d="M136 69.3333333333333H109.3333333333333V82.6666666666667C109.3333333333333 115.856 129.2746666666667 132.7573333333334 145.3013333333333 146.336C161.024 159.6693333333333 170.6666666666667 168.7466666666667 170.6666666666667 186.6666666666667C170.6666666666667 201.6693333333333 159.3013333333333 224 128 224A104.57066666666667 104.57066666666667 0 0 1 68.2666666666667 202.928L53.552 225.0666666666667A127.648 127.648 0 0 0 128 250.6666666666667C173.0293333333334 250.6666666666667 197.3333333333333 217.6906666666667 197.3333333333333 186.6666666666667C197.3333333333333 155.4773333333334 178.0426666666667 139.1306666666667 162.544 125.9946666666667C147.7333333333333 113.4293333333334 136 103.4986666666667 136 82.6666666666667zM101.3333333333333 26.6666666666667A21.333333333333332 21.333333333333332 0 0 1 144 26.6666666666667A21.333333333333332 21.333333333333332 0 0 1 101.3333333333333 26.6666666666667" />
    <glyph glyph-name="magnifier"
      unicode="&#xEA30;"
      horiz-adv-x="256" d="M93.5 238.409C82.92 236.542 77.176 234.649 67.294 229.769C22.667 207.732 3.53 152.142 25.054 107.072C42.156 71.26 80.667 49.502 118.91 54.043C130.169 55.38 143.885 59.597 152.969 64.514L159.437 68.016L187.01 40.508C202.175 25.379 215.22 13 215.999 13C217.847 13 243 38.153 243 40.001C243 40.78 230.67 53.811 215.599 68.959L188.198 96.5L192.535 105C213.128 145.354 200.63 195.969 163.5 222.588C143.648 236.821 117.716 242.682 93.5 238.409M130.5 220.977C173.418 207.633 196.335 163.914 182.381 122C178.711 110.974 172.727 101.556 163.586 92.414C154.444 83.273 145.026 77.289 134 73.619C89.318 58.743 42.298 86.352 33.437 132.667C28.657 157.647 36.572 182.848 54.907 201.03C66.13 212.159 78.579 218.993 94.028 222.507C103.231 224.6 121.282 223.843 130.5 220.977M222.743 33.262L215.999 26.517L192.201 50.299L168.403 74.082L174.951 80.816L181.5 87.55L205.494 63.778L229.488 40.007L222.743 33.262" />
    <glyph glyph-name="floppy-disk"
      unicode="&#xEA31;"
      horiz-adv-x="256" d="M245.656 197.656L197.656 245.656A8 8 0 0 1 192 248H168V192A8 8 0 0 0 160 184H56A8 8 0 0 0 48 192V248H40A32 32 0 0 1 8 216V40A32 32 0 0 1 40 8H216A32 32 0 0 1 248 40V192A8 8 0 0 1 245.656 197.656zM208 56A8 8 0 0 0 200 48H56A8 8 0 0 0 48 56V96A8 8 0 0 0 56 104H200A8 8 0 0 0 208 96zM120 248H144V200H120V248z" />
    <glyph glyph-name="delete-forever"
      unicode="&#xEA32;"
      horiz-adv-x="256" d="M90.465 250.048C85.853 248.179 85.518 246.711 85.172 226.849L84.844 208L50.557 208C17.384 208 16.184 207.933 13.635 205.927C10.096 203.144 10.014 197.896 13.455 194.455L15.909 192L130.78 192L245.651 192L247.677 194.25C250.516 197.404 251.103 199.598 249.933 202.677C247.925 207.958 248.104 207.934 210.75 207.968L176 208L176 226.577L176 245.154L173.077 248.077L170.154 251L131.327 250.937C109.972 250.902 91.584 250.502 90.465 250.048M160 221.5L160 208L130.5 208L101 208L101 221.5L101 235L130.5 235L160 235L160 221.5M45.635 173.927L43 171.855L43.01 97.177L43.02 22.5L45.427 17.329C48.636 10.438 54.87 4.566 61.687 2.016C67.108 -0.012 68.573 -0.05 132.362 0.222L197.5 0.5L201.722 2.756C208.344 6.295 212.685 10.659 215.71 16.818L218.5 22.5L218.5 96.669L218.5 170.838L216.076 173.419C213.124 176.561 209.234 176.758 205.66 173.947L203.05 171.894L202.775 98.652C202.469 17.149 202.927 22.365 195.696 17.956C192.62 16.081 190.197 16.007 131.218 16.004C64.485 16 65.042 15.955 61.328 21.622C59.612 24.24 59.469 28.877 59 97.625L58.5 170.84L56.076 173.42C53.118 176.568 49.232 176.757 45.635 173.927M96.388 130.02C93.943 129.032 92.966 126.276 94.065 123.463C94.486 122.383 101.169 115.206 108.916 107.513L123.001 93.526L108.376 78.875C96.55 67.03 93.75 63.692 93.75 61.441C93.75 58.598 96.194 56 98.868 56C99.686 56 107.149 62.744 115.454 70.986L130.553 85.973L145.025 71.475C152.985 63.501 160.307 56.72 161.298 56.406C163.843 55.598 168 58.609 168 61.261C168 62.782 163.298 68.186 153 78.5L137.999 93.524L153 108.5C168.825 124.299 170.169 126.533 165.635 129.504C163.905 130.637 162.63 130.799 160.885 130.108C159.573 129.588 152.212 122.832 144.527 115.095L130.554 101.027L115.454 116.013C107.149 124.256 99.937 130.971 99.427 130.937C98.917 130.902 97.55 130.489 96.388 130.02" />
    <glyph glyph-name="video-gallery"
      unicode="&#xEA33;"
      horiz-adv-x="256" d="M113.5 246.546C99.797 244.655 89.689 241.518 76.5 235.062C62.122 228.025 50.624 219.666 41.093 209.323C6.081 171.326 -1.686 117.711 21.127 71.5C38.644 36.017 72.563 11.453 112.162 5.573C130.435 2.86 153.372 4.312 157.971 8.473C160.567 10.823 160.562 14.181 157.959 16.537C156.065 18.251 155.219 18.298 146.209 17.183C127.125 14.82 111.996 16.26 94.504 22.104C48.65 37.425 17.996 82.44 20.349 131C22.278 170.812 45.726 206.764 81.5 224.762C93.345 230.721 115.404 235.991 128.526 235.997C183.752 236.022 229.667 197.168 238.456 142.973C239.301 137.763 239.994 131.363 239.996 128.75C240.003 120.993 245.442 117.442 250.133 122.133C252.114 124.114 252.218 124.92 251.584 133.383C247.588 186.779 212.41 229.835 161.664 243.442C144.429 248.063 130.84 248.939 113.5 246.546M95.2 168.8C94.305 167.905 94 157.022 94 126C94 83.146 94.109 81.936 97.95 82.044C100.241 82.108 172.281 122.499 173.472 124.387C174.162 125.481 174.162 126.519 173.472 127.613C172.281 129.501 100.241 169.892 97.95 169.956C97.098 169.98 95.86 169.46 95.2 168.8M139.298 138.5C151.22 131.9 160.975 126.275 160.975 126C160.975 125.573 147.309 117.878 109.81 97.191L102 92.882L102 126L102 159.118L109.81 154.809C114.106 152.439 127.376 145.1 139.298 138.5M175.212 100.812C173.602 99.202 173.675 96.515 175.367 95.11C176.346 94.298 187.459 94.05 214.508 94.238C249.228 94.479 252.372 94.641 253.386 96.25C254.191 97.526 254.191 98.474 253.386 99.75C252.372 101.359 249.221 101.521 214.353 101.762C185.687 101.959 176.127 101.727 175.212 100.812M175.212 64.812C173.602 63.202 173.675 60.515 175.367 59.11C176.346 58.298 187.459 58.05 214.508 58.238C249.228 58.479 252.372 58.641 253.386 60.25C254.191 61.526 254.191 62.474 253.386 63.75C252.372 65.359 249.221 65.521 214.353 65.762C185.687 65.959 176.127 65.727 175.212 64.812M175.212 28.812C173.602 27.202 173.675 24.515 175.367 23.11C176.346 22.298 187.459 22.05 214.508 22.238C249.228 22.479 252.372 22.641 253.386 24.25C254.191 25.526 254.191 26.474 253.386 27.75C252.372 29.359 249.221 29.521 214.353 29.762C185.687 29.959 176.127 29.727 175.212 28.812" />
    <glyph glyph-name="get_app"
      unicode="&#xEA34;"
      horiz-adv-x="256" d="M202.6666666666667 160H160V224H96V160H53.3333333333333L128 85.3333333333333L202.6666666666666 160zM53.3333333333333 64V42.6666666666667H202.6666666666666V64H53.3333333333333z" />
    <glyph glyph-name="chemistry"
      unicode="&#xEA35;"
      horiz-adv-x="256" d="M68.571 246.429C67.257 245.114 67 241.854 67 226.485C67 208.634 67.063 208.069 69.223 206.557C71.173 205.19 78.695 205 130.768 205L190.091 205L192.545 207.455C194.96 209.869 195 210.19 195 226.955C195 242.667 194.844 244.156 193 246C191.044 247.956 189.667 248 130.571 248C76.97 248 69.965 247.822 68.571 246.429M184 226.5L184 216L130.5 216L77 216L77 226.5L77 237L130.5 237L184 237L184 226.5M98.455 189.545L96 187.091L96 157.432L96 127.773L67.336 85.707C51.57 62.57 37.845 41.467 36.836 38.81C32.904 28.463 35.777 16.909 44.377 8.479C53.393 -0.359 49.722 0 131.077 0C199.979 0 202.075 0.056 207.387 2.044C221.76 7.421 229.657 24.384 224.54 38.887C223.737 41.164 210.012 62.19 194.04 85.613L165 128.2L165 158.027L165 187.855L162.365 189.927C158.768 192.757 154.882 192.568 151.924 189.419L149.5 186.839L149.5 154.669L149.5 122.5L179.75 78.112C207.333 37.637 210 33.361 209.996 29.612C209.994 27.254 209.132 24.088 207.974 22.19C204.104 15.841 206.098 16 130.267 16C65.546 16 61.267 16.108 58.062 17.827C54.056 19.976 51 25.134 51 29.748C51 33.106 52.087 34.786 97.569 101.747L112 122.993L112 155.042L112 187.091L109.545 189.545C107.998 191.093 105.948 192 104 192C102.052 192 100.002 191.093 98.455 189.545M147.177 89.78C138.62 87.946 131.911 77.808 133.486 69.091C135.835 56.089 151.057 49.14 161.725 56.199C167.664 60.129 170.467 65.255 170.467 72.183C170.467 76.89 169.95 78.606 167.483 82.099C162.757 88.79 155.451 91.553 147.177 89.78M99.326 73.916C91.168 72.38 85.681 67.952 82.081 60C76.981 48.734 81.963 35.187 93.278 29.549C113.405 19.519 135.082 40.25 125.649 60.507C120.878 70.751 110.526 76.025 99.326 73.916M154.042 73.45C155.104 72.169 155.039 71.61 153.664 70.236C152.112 68.683 151.888 68.683 150.336 70.236C148.961 71.61 148.896 72.169 149.958 73.45C150.666 74.302 151.585 75 152 75C152.415 75 153.334 74.302 154.042 73.45M109.75 55.363C110.987 54.002 112 51.768 112 50.399C112 46.888 107.796 43 104 43C100.277 43 96 46.867 96 50.232C96 53.164 98.566 56.885 101.357 57.999C104.298 59.173 107.081 58.299 109.75 55.363" />
    <glyph glyph-name="search-content"
      unicode="&#xEA36;"
      horiz-adv-x="256" d="M14 226C12.9 224.9 12 223.1 12 222C12 220.9 12.9 219.1 14 218C15.966 216.034 17.333 216 94 216C170.667 216 172.034 216.034 174 218C175.1 219.1 176 220.9 176 222C176 223.1 175.1 224.9 174 226C172.034 227.966 170.667 228 94 228C17.333 228 15.966 227.966 14 226M156.259 175.992C140.161 171.774 127.35 159.982 120.957 143.5C119.003 138.463 118.63 135.653 118.63 126C118.63 116.347 119.003 113.537 120.957 108.5C129.483 86.516 150.493 72.722 173 74.329C182.766 75.026 188.957 76.993 197.388 82.078L204.258 86.222L222.389 68.111C232.361 58.15 241.213 50 242.06 50C242.907 50 244.14 50.54 244.8 51.2C245.46 51.86 246 53.093 246 53.94C246 54.787 237.831 63.659 227.846 73.654L209.692 91.828L213.204 97.164C219.652 106.961 221.37 113.027 221.37 126C221.37 135.653 220.997 138.463 219.043 143.5C208.976 169.456 182.871 182.966 156.259 175.992M179.201 168.891C191.433 166.332 203.922 156.523 209.204 145.328C217.565 127.604 214.189 108.22 200.44 95.018C189.848 84.847 176.835 80.572 163.296 82.815C139.449 86.767 122.922 109.207 126.767 132.413C130.958 157.704 154.474 174.065 179.201 168.891M14 162C12.9 160.9 12 159.1 12 158C12 156.9 12.9 155.1 14 154C15.93 152.07 17.333 152 54 152C90.667 152 92.07 152.07 94 154C96.546 156.546 96.546 159.454 94 162C92.07 163.93 90.667 164 54 164C17.333 164 15.93 163.93 14 162M14 98C12.9 96.9 12 95.1 12 94C12 92.9 12.9 91.1 14 90C15.93 88.07 17.333 88 54 88C90.667 88 92.07 88.07 94 90C96.546 92.546 96.546 95.454 94 98C92.07 99.93 90.667 100 54 100C17.333 100 15.93 99.93 14 98M14 34C12.9 32.9 12 31.1 12 30C12 28.9 12.9 27.1 14 26C15.966 24.034 17.333 24 94 24C170.667 24 172.034 24.034 174 26C175.1 27.1 176 28.9 176 30C176 31.1 175.1 32.9 174 34C172.034 35.966 170.667 36 94 36C17.333 36 15.966 35.966 14 34" />
    <glyph glyph-name="statistics"
      unicode="&#xEA37;"
      horiz-adv-x="256" d="M176 21.3333333333333H144A5.333333333333333 5.333333333333333 0 0 0 138.6666666666667 26.6666666666667V80A5.333333333333333 5.333333333333333 0 0 0 144 85.3333333333333H176A5.333333333333333 5.333333333333333 0 0 0 181.3333333333334 80V26.6666666666667A5.333333333333333 5.333333333333333 0 0 0 176 21.3333333333333zM77.488 187.28A32.03733333333333 32.03733333333333 0 0 0 69.9466666666667 194.8213333333334L42.7466666666667 167.648A21.104 21.104 0 0 1 32 170.6666666666667A21.333333333333332 21.333333333333332 0 1 1 53.3333333333333 149.3333333333334A21.104 21.104 0 0 1 50.3146666666667 160.1066666666667zM74.6666666666667 213.3333333333334A21.333333333333332 21.333333333333332 0 0 1 117.3333333333333 213.3333333333334A21.333333333333332 21.333333333333332 0 0 1 74.6666666666667 213.3333333333334M202.6666666666667 213.3333333333334A21.333333333333332 21.333333333333332 0 0 1 245.3333333333333 213.3333333333334A21.333333333333332 21.333333333333332 0 0 1 202.6666666666667 213.3333333333334M205.488 187.28A32.03733333333333 32.03733333333333 0 0 0 197.9466666666667 194.8213333333334L170.7733333333334 167.648A20.735999999999997 20.735999999999997 0 0 1 149.2266666666667 167.648L122.0533333333334 194.8213333333334A32.03733333333333 32.03733333333333 0 0 0 114.512 187.28L141.6853333333334 160.08A21.104 21.104 0 0 1 138.6666666666667 149.3333333333334A21.333333333333332 21.333333333333332 0 0 1 181.3333333333333 149.3333333333334A21.104 21.104 0 0 1 178.3146666666667 160.1066666666667zM48 21.3333333333333H16A5.333333333333333 5.333333333333333 0 0 0 10.6666666666667 26.6666666666667V80A5.333333333333333 5.333333333333333 0 0 0 16 85.3333333333333H48A5.333333333333333 5.333333333333333 0 0 0 53.3333333333333 80V26.6666666666667A5.333333333333333 5.333333333333333 0 0 0 48 21.3333333333333zM112 21.3333333333333H80A5.333333333333333 5.333333333333333 0 0 0 74.6666666666667 26.6666666666667V144A5.333333333333333 5.333333333333333 0 0 0 80 149.3333333333333H112A5.333333333333333 5.333333333333333 0 0 0 117.3333333333333 144V26.6666666666667A5.333333333333333 5.333333333333333 0 0 0 112 21.3333333333333zM240 21.3333333333333H208A5.333333333333333 5.333333333333333 0 0 0 202.6666666666667 26.6666666666667V144A5.333333333333333 5.333333333333333 0 0 0 208 149.3333333333333H240A5.333333333333333 5.333333333333333 0 0 0 245.3333333333334 144V26.6666666666667A5.333333333333333 5.333333333333333 0 0 0 240 21.3333333333333z" />
    <glyph glyph-name="turtle"
      unicode="&#xEA38;"
      horiz-adv-x="256" d="M117.251 254.519C106.509 251.495 98.121 245.355 92.299 236.254C87.161 228.221 85.961 223.167 85.303 206.783L84.712 192.066L45.273 191.783L5.834 191.5L2.917 188.234C-0.519 184.388 -0.886 179.382 1.52 169.176C4.023 158.559 7.659 152.176 15.917 143.905C23.684 136.125 32.415 130.916 40.052 129.507L43.604 128.852L43.175 116.817C42.937 110.135 43.295 100.761 43.981 95.741C45.142 87.249 45.104 86.641 43.358 85.718C40.131 84.012 31.276 74.188 28.513 69.249C23.713 60.668 21.768 53.278 21.735 43.5C21.69 30.346 24.693 21.244 29.98 18.51C34.234 16.31 35.408 16.538 45.419 21.506C50.414 23.985 58.413 27.012 63.195 28.234L71.889 30.455L79.695 22.865C89.466 13.363 99.448 6.86 109.617 3.37C120.901 -0.502 135.099 -0.502 146.383 3.37C156.552 6.86 166.534 13.363 176.305 22.865L184.111 30.455L192.805 28.234C197.587 27.012 205.586 23.985 210.581 21.506C220.592 16.538 221.766 16.31 226.02 18.51C229.358 20.237 230.612 22.24 232.476 28.829C235.984 41.224 234.683 54.781 228.862 66.476C225.683 72.864 216.606 83.641 212.658 85.715C210.928 86.624 210.891 87.279 212.043 96.436C212.729 101.887 213.05 111.181 212.771 117.508L212.272 128.828L215.886 129.495C223.673 130.933 232.289 136.077 240.081 143.941C248.45 152.388 252.036 158.751 254.592 169.688C256.734 178.856 256.06 185.395 252.616 188.839L249.956 191.5L210.615 191.783L171.274 192.066L170.765 206.283C170.445 215.23 169.644 222.539 168.603 226C165.183 237.373 154.506 248.781 143.344 252.99C135.825 255.825 124.288 256.501 117.251 254.519M136.556 232.973C140.275 231.569 145.252 226.654 147.12 222.541C149.637 217.002 149.874 199.451 147.42 200.392C143.045 202.071 127.471 202.96 119.08 202.009C114.174 201.453 109.449 200.726 108.58 200.392C106.117 199.447 106.364 217.004 108.893 222.571C113.38 232.45 125.686 237.077 136.556 232.973M147.432 178.165C156.32 174.956 163.567 170.252 171.031 162.847C185.918 148.077 193.068 128.704 191.645 106.99C189.029 67.084 161.791 27.075 133.75 21.95C113.595 18.266 90.964 35.005 76.222 64.5C58.459 100.041 60.318 134.357 81.359 159.31C89.03 168.408 102.281 176.829 113.348 179.639C121.271 181.65 140.025 180.84 147.432 178.165M58.666 164.689C56.29 161.218 53.48 156.504 52.423 154.215C50.161 149.318 47.997 148.911 41.028 152.072C34.792 154.901 30.536 158.35 27.196 163.28C21.608 171.527 20.527 171 43.025 171L62.987 171L58.666 164.689M232.3 169.25C229.879 162.598 222.88 155.66 214.972 152.072C208.003 148.911 205.839 149.318 203.577 154.215C202.52 156.504 199.71 161.218 197.334 164.689L193.013 171L212.975 171C231.563 171 232.893 170.879 232.3 169.25M55.886 57.468C57.748 53.326 59.098 49.814 58.886 49.662C58.674 49.511 55.013 48.228 50.75 46.811L43 44.235L43 46.492C43 51.073 49.686 65.003 51.883 64.999C52.222 64.998 54.024 61.609 55.886 57.468M207.806 60.25C210.688 55.707 212.983 49.348 212.994 45.867C212.999 44.439 212.032 44.557 205.25 46.811C200.988 48.228 197.326 49.511 197.114 49.662C196.545 50.069 203.389 64.998 204.146 64.999C204.501 65 206.148 62.863 207.806 60.25" />
    <glyph glyph-name="crane"
      unicode="&#xEA39;"
      horiz-adv-x="256" d="M224 96V160H208V96H184A8 8 0 0 1 176 88V56A8 8 0 0 1 184 48H248A8 8 0 0 1 256 56V88A8 8 0 0 1 248 96zM104 16H80V248A8 8 0 0 1 72 256H40A8 8 0 0 1 32 248V222.24L6.472 217.264A8 8 0 0 1 0 209.416V184A8 8 0 0 1 8 176H32V16H8A8 8 0 0 1 8 0H104A8 8 0 0 1 104 16zM248.36 216L96 222.904V176H248A8 8 0 0 1 256 184V208A8 8 0 0 1 248.36 216z" />
    <glyph glyph-name="priority-highest"
      unicode="&#xEA3A;"
      horiz-adv-x="256" d="M121.5 246.672C119.85 246.025 117.15 244.741 115.5 243.82C113.85 242.898 89.716 219.274 61.87 191.322C14.292 143.563 11.135 140.176 9.495 135.116C7.22 128.095 7.843 118.213 10.953 112C12.527 108.855 28.158 92.533 62.853 57.805C118.179 2.426 117.44 3.029 130.072 3.01C143.742 2.989 141.028 0.822 196.296 55.887C223.684 83.174 247.499 107.685 249.218 110.355C251.871 114.476 252.412 116.405 252.801 123.121C253.623 137.328 256.312 133.928 198.129 192.269C151.51 239.014 145.987 244.229 141.212 246.019C135.313 248.229 126.239 248.53 121.5 246.672M136.8 230.573C138.285 229.787 161.404 207.175 188.175 180.323C227.774 140.604 236.914 130.941 237.192 128.5C238.11 120.45 238.932 121.413 186.29 68.802L136.458 19L131.663 19C129.026 19 125.886 19.497 124.684 20.104C121.579 21.675 27.168 115.939 25.435 119.2C23.059 123.671 23.62 129.189 26.899 133.6C30.156 137.982 118.891 226.499 123.385 229.849C126.764 232.369 132.788 232.693 136.8 230.573M102.724 163.206C88.576 149.019 77 136.969 77 136.428C77 134.075 80.261 131 82.757 131C84.868 131 89.991 135.575 108.211 153.732L131.021 176.463L153.768 153.732C177.005 130.511 178.94 129.083 182.429 132.571C185.935 136.078 184.523 137.933 158.728 163.728C139.157 183.299 132.892 189 130.953 189C129.01 189 122.678 183.214 102.724 163.206M128.5 145.852C125.302 144.114 80.021 98.791 78.368 95.674C77.027 93.144 77.037 92.593 78.458 90.424C81.61 85.613 83.364 86.846 107 110.5C119.366 122.875 129.941 133 130.5 133C131.059 133 141.634 122.875 154 110.5C169.064 95.424 177.177 88 178.587 88C181.585 88 184.367 91.408 183.656 94.21C183.055 96.582 133.147 147.023 131.455 146.97C130.93 146.953 129.6 146.45 128.5 145.852" />
    <glyph glyph-name="clear-data"
      unicode="&#xEA3B;"
      horiz-adv-x="256" d="M176 100A4 4 0 0 0 176 108L240 108A4 4 0 0 0 240 100zM176 44A4 4 0 0 0 176 52L240 52A4 4 0 0 0 240 44zM168 72A4 4 0 0 0 168 80L240 80A4 4 0 0 0 240 72zM240 16H188A4 4 0 0 0 188 24H240A4 4 0 0 0 240 16zM143.64 72.668A109.552 109.552 0 0 0 144.756 88.064C143.684 87.972 142.608 87.872 141.5 87.872A52.856 52.856 0 0 0 88.7 140.672A47.28 47.28 0 0 0 89.58 149.504C41.416 132.648 12 83.944 12 16A4 4 0 0 1 16 12H42.616A179.168 179.168 0 0 0 44.044 48.584L51.956 47.416A171.492 171.492 0 0 1 50.624 12H79.72A157.86 157.86 0 0 0 78.272 48.32L86.248 47.68A149.784 149.784 0 0 1 87.792 12H118.724A136.748 136.748 0 0 0 113.6 45.692L121.6 45.864A129.248 129.248 0 0 1 127.028 12H154.924A4 4 0 0 1 158.388 18A109.22800000000001 109.22800000000001 0 0 0 143.64 72.668zM220.944 246.28A8 8 0 0 1 209.712 244.952L138.304 154.4A26.484000000000005 26.484000000000005 0 0 1 129.332 156A123.492 123.492 0 0 1 98.448 152.212A42.4 42.4 0 0 1 96.704 140.668A44.848 44.848 0 0 1 141.504 95.868A35.736 35.736 0 0 1 146.232 96.248A111.06799999999998 111.06799999999998 0 0 0 153.432 117.888A43.296 43.296 0 0 1 156 129.332A26.492 26.492 0 0 1 151.056 144.744L222.256 235.048A8 8 0 0 1 220.944 246.28z" />
    <glyph glyph-name="calendar-day-view"
      unicode="&#xEA3C;"
      horiz-adv-x="256" d="M12 232H244A8 8 0 0 0 252 224V208A8 8 0 0 0 244 200H12A8 8 0 0 0 4 208V224A8 8 0 0 0 12 232zM12 56H244A8 8 0 0 0 252 48V32A8 8 0 0 0 244 24H12A8 8 0 0 0 4 32V48A8 8 0 0 0 12 56zM244 72H12A8 8 0 0 0 4 80V176A8 8 0 0 0 12 184H244A8 8 0 0 0 252 176V80A8 8 0 0 0 244 72z" />
    <glyph glyph-name="personal-trainer"
      unicode="&#xEA3D;"
      horiz-adv-x="256" d="M226.24 116.288L178.24 156.288A16 16 0 0 1 168 160H88A16 16 0 0 1 77.752 156.288L29.752 116.288A16 16 0 0 1 25.136 98.056L41.136 58.056A16 16 0 0 1 56 48A16 16 0 0 1 70.624 70.536L59.2 99.152L80 116.504V16A8 8 0 0 1 88 8H168A8 8 0 0 1 176 16V116.504L196.8 99.152L185.344 70.528A16 16 0 0 1 200 48A16 16 0 0 1 214.856 58.064L230.856 98.064A16 16 0 0 1 226.24 116.288zM88 216A40 40 0 0 1 168 216A40 40 0 0 1 88 216" />
    <glyph glyph-name="rat"
      unicode="&#xEA3E;"
      horiz-adv-x="256" d="M224 108H218.4A72.64 72.64 0 0 1 228 144C228 185.92 192.08 220 148 220A159.76 159.76 0 0 1 73.04 201.28A32 32 0 0 1 55.2 217.92A4 4 0 0 1 50.64 216.72A83.36 83.36 0 0 1 32.32 170.32A160.31999999999996 160.31999999999996 0 0 1 6.56 134.64A22.16 22.16 0 0 1 6 115.12L9.76 106.96A12 12 0 0 1 20.64 100H64A24 24 0 0 0 88 124A4 4 0 0 0 88 116A16 16 0 0 1 72 100H128.32A28 28 0 0 0 137.68 117.12A32 32 0 0 0 160 172A4 4 0 0 0 160 164A24 24 0 0 1 136 140A26 26 0 0 1 150.56 116.64A22 22 0 0 1 136.4 100H224A16 16 0 0 0 224 68H160A24 24 0 0 1 160 20H180A4 4 0 0 1 180 28H160A16 16 0 0 0 160 60H224A24 24 0 0 1 224 108zM50 140A6 6 0 1 0 56 146A6 6 0 0 0 50 140z" />
    <glyph glyph-name="pen-01"
      unicode="&#xEA3F;"
      horiz-adv-x="256" d="M129.6 200L4.8 75.2C1.6 72 0 68.8 0 64V16C0 6.4 6.4 0 16 0H64C68.8 0 72 1.6 75.2 4.8L200 129.6L129.6 200zM251.2 203.2L203.2 251.2C196.8 257.6 187.2 257.6 180.8 251.2L152 222.4L222.4 152L251.2 180.8C257.6 187.2 257.6 196.8 251.2 203.2z" />
    <glyph glyph-name="file-log"
      unicode="&#xEA40;"
      horiz-adv-x="256" d="M26 202.231L26 150.462L16 140.5L6 130.538L6 84.269L6 38L16 38L26 38L26 20L26 2L128 2L230 2L230 20L230 38L240 38L250 38L250 84.269L250 130.538L240 140.5L230 150.462L230 168.487L230 186.511L196.245 220.256L162.489 254L94.245 254L26 254L26 202.231M154 210L154 178L186 178L218 178L218 156L218 134L128 134L38 134L38 188L38 242L96 242L154 242L154 210M188 211.5L209.483 190L187.741 190L166 190L166 211.5C166 223.325 166.116 233 166.259 233C166.401 233 176.185 223.325 188 211.5M238 86L238 50L128 50L18 50L18 86L18 122L128 122L238 122L238 86M115.02 103.75C109.118 100.735 106.623 95.811 106.563 87.061C106.502 78.21 108.969 73.272 114.962 70.25C123.979 65.703 135.402 68.605 139.398 76.458C142.254 82.072 142.126 92.022 139.122 97.825C135.097 105.6 123.987 108.331 115.02 103.75M78 86.5L78 68L89.563 68L101.127 68L100.813 71.25L100.5 74.5L93.25 74.794L86 75.088L86 90.044L86 105L82 105L78 105L78 86.5M157.999 103.06C153.619 100.743 151.599 98.439 150.142 94.101C146.958 84.621 150.313 73.058 157.227 69.679C161.092 67.79 168.786 67.306 175.361 68.54L179 69.223L179 79.111L179 89L172 89L165 89L165 85C165 81.095 165.083 81 168.5 81C171.81 81 172 80.817 172 77.617C172 74.894 171.561 74.154 169.75 73.83C162.273 72.49 157.636 76.899 157.553 85.427C157.461 94.879 163.406 100.169 171.911 98.202C176.97 97.033 177.561 97.293 178.503 101.114C179.037 103.277 178.747 103.835 176.824 104.35C171.956 105.654 161.556 104.941 157.999 103.06M130.545 96.545C132.683 94.408 133 93.189 133 87.101C133 81.17 132.638 79.69 130.606 77.328C128.693 75.104 127.367 74.545 124 74.545C120.633 74.545 119.307 75.104 117.394 77.328C115.398 79.649 115 81.196 115 86.633C115 92.507 115.29 93.444 117.923 96.077C121.743 99.897 126.999 100.092 130.545 96.545M218 26L218 14L128 14L38 14L38 26L38 38L128 38L218 38L218 26" />
    <glyph glyph-name="c-add"
      unicode="&#xEA41;"
      horiz-adv-x="256" d="M128 256C57.6 256 0 198.4 0 128S57.6 0 128 0S256 57.6 256 128S198.4 256 128 256zM192 112H144V64H112V112H64V144H112V192H144V144H192V112z" />
    <glyph glyph-name="chemistry-1"
      unicode="&#xEA42;"
      horiz-adv-x="256" d="M64 256H200V216H56V256H64zM214.96 49.28L168 122.4V200H152V120A8 8 0 0 1 153.28 115.68L176.16 80H79.76L102.72 115.68A8 8 0 0 1 104 120V200H88V122.32L41.04 49.28A32 32 0 0 1 67.92 0H188A32 32 0 0 1 214.96 49.28z" />
    <glyph glyph-name="c-delete"
      unicode="&#xEA43;"
      horiz-adv-x="256" d="M128 256C57.6 256 0 198.4 0 128S57.6 0 128 0S256 57.6 256 128S198.4 256 128 256zM192 112H64V144H192V112z" />
    <glyph glyph-name="file-dev"
      unicode="&#xEA44;"
      horiz-adv-x="256" d="M220 248H36A8 8 0 0 1 28 240V16A8 8 0 0 1 36 8H220A8 8 0 0 1 228 16V240A8 8 0 0 1 220 248zM94.828 102.828A4 4 0 1 0 89.172 97.172L61.172 125.172A4 4 0 0 0 61.172 130.828L89.172 158.828A4 4 0 0 0 94.828 153.172L69.656 128zM147.796 174.736L115.796 78.736A4 4 0 0 0 108.196 81.264L140.196 177.264A4 4 0 0 0 147.796 174.736zM194.828 125.172L166.828 97.172A4 4 0 0 0 161.172 102.828L186.344 128L161.172 153.172A4 4 0 0 0 166.828 158.828L194.828 130.828A4 4 0 0 0 194.828 125.172z" />
    <glyph glyph-name="code"
      unicode="&#xEA45;"
      horiz-adv-x="256" d="M145.096 222.785C143.774 222.078 141.878 220.375 140.881 219C138.216 215.321 95.698 44.422 96.451 40.411C98.181 31.188 112.08 29.296 115.936 37.759C116.544 39.094 126.737 78.957 138.586 126.343C153.729 186.902 159.957 213.417 159.549 215.589C158.396 221.739 150.497 225.671 145.096 222.785M35.273 156.727L11 132.455L11 128L11 123.545L35.273 99.273C59.172 75.373 59.609 75 63.696 75C71.24 75 76.442 81.992 73.927 88.75C73.364 90.263 64.717 99.713 54.712 109.75L36.52 128L54.712 146.25C64.717 156.287 73.389 165.802 73.982 167.394C76.41 173.911 71.02 181 63.638 181C59.627 181 59.061 180.516 35.273 156.727M185.707 178.984C182.234 176.252 180.614 171.163 182.018 167.394C182.611 165.802 191.283 156.287 201.288 146.25L219.48 128L201.288 109.75C191.283 99.713 182.606 90.184 182.007 88.576C179.505 81.864 184.711 75 192.304 75C196.391 75 196.828 75.373 220.727 99.273L245 123.545L245 128L245 132.455L220.727 156.727C196.939 180.516 196.373 181 192.362 181C189.773 181 187.328 180.259 185.707 178.984" />
    <glyph glyph-name="code-1"
      unicode="&#xEA46;"
      horiz-adv-x="256" d="M100.2666666666667 78.9333333333333L51.2 128L100.2666666666667 177.0666666666667L85.3333333333333 192L21.3333333333333 128L85.3333333333333 64L100.2666666666667 78.9333333333333zM155.7333333333334 78.9333333333333L204.8 128L155.7333333333334 177.0666666666667L170.6666666666667 192L234.6666666666667 128L170.6666666666667 64L155.7333333333333 78.9333333333333z" />
    <glyph glyph-name="table_rows"
      unicode="&#xEA47;"
      horiz-adv-x="256" d="M234.6666666666667 181.3333333333334H21.3333333333333V234.6666666666667H234.6666666666667V181.3333333333334zM234.6666666666667 154.6666666666667H21.3333333333333V101.3333333333334H234.6666666666667V154.6666666666667zM234.6666666666667 74.6666666666667H21.3333333333333V21.3333333333334H234.6666666666667V74.6666666666667z" />
    <glyph glyph-name="insert_drive_file"
      unicode="&#xEA48;"
      horiz-adv-x="256" d="M64 234.6666666666667C52.2666666666667 234.6666666666667 42.7733333333333 225.0666666666667 42.7733333333333 213.3333333333334L42.6666666666667 42.6666666666667C42.6666666666667 30.9333333333333 52.16 21.3333333333333 63.8933333333333 21.3333333333333H192C203.7333333333334 21.3333333333333 213.3333333333334 30.9333333333333 213.3333333333334 42.6666666666667V170.6666666666667L149.3333333333334 234.6666666666667H64zM138.6666666666667 160V218.6666666666667L197.3333333333333 160H138.6666666666667z" />
    <glyph glyph-name="calendar-day-view-1"
      unicode="&#xEA49;"
      horiz-adv-x="256" d="M16 234.6666666666667H240A10.666666666666666 10.666666666666666 0 0 0 250.6666666666667 224V208A10.666666666666666 10.666666666666666 0 0 0 240 197.3333333333334H16A10.666666666666666 10.666666666666666 0 0 0 5.3333333333333 208V224A10.666666666666666 10.666666666666666 0 0 0 16 234.6666666666667zM16 58.6666666666667H240A10.666666666666666 10.666666666666666 0 0 0 250.6666666666667 48V32A10.666666666666666 10.666666666666666 0 0 0 240 21.3333333333334H16A10.666666666666666 10.666666666666666 0 0 0 5.3333333333333 32V48A10.666666666666666 10.666666666666666 0 0 0 16 58.6666666666667zM240 74.6666666666667H16A10.666666666666666 10.666666666666666 0 0 0 5.3333333333333 85.3333333333333V170.6666666666667A10.666666666666666 10.666666666666666 0 0 0 16 181.3333333333334H240A10.666666666666666 10.666666666666666 0 0 0 250.6666666666667 170.6666666666667V85.3333333333333A10.666666666666666 10.666666666666666 0 0 0 240 74.6666666666667z" />
    <glyph glyph-name="window-code"
      unicode="&#xEA4A;"
      horiz-adv-x="256" d="M256 208V232C256 236.416 252.424 240 248 240H56V208H256zM40 240H8C3.576 240 0 236.416 0 232V208H40V240zM0 192V24C0 19.584 3.576 16 8 16H248C252.424 16 256 19.584 256 24V192H0zM48 68.688L36.688 80L68.688 112L36.688 144L48 155.312L91.312 112L48 68.688zM160 72H96V88H160V72z" />
    <glyph glyph-name="home-search"
      unicode="&#xEA4B;"
      horiz-adv-x="256" d="M245.3333333333333 138.6666666666667A5.333333333333333 5.333333333333333 0 0 0 241.9626666666667 139.872L128 233.1093333333333L14.0426666666667 139.872A5.333333333333333 5.333333333333333 0 0 0 7.2906666666667 148.128L124.624 244.128A5.333333333333333 5.333333333333333 0 0 0 131.376 244.128L248.7093333333334 148.128A5.333333333333333 5.333333333333333 0 0 0 245.3333333333333 138.6666666666667zM96 106.6666666666667A26.666666666666664 26.666666666666664 0 0 1 149.3333333333333 106.6666666666667A26.666666666666664 26.666666666666664 0 0 1 96 106.6666666666667M128 219.328L32 140.8V21.3333333333333A10.666666666666666 10.666666666666666 0 0 1 42.6666666666667 10.6666666666667H213.3333333333333A10.666666666666666 10.666666666666666 0 0 1 224 21.3333333333333V140.8zM168.4586666666667 45.792L140.4213333333333 73.8346666666667A37.33333333333334 37.33333333333334 0 1 0 155.504 88.9173333333334L183.5413333333333 60.8746666666667z" />
    <glyph glyph-name="rotate-right"
      unicode="&#xEA4C;"
      horiz-adv-x="256" d="M96 168H232A8 8 0 0 0 240 160V24A8 8 0 0 0 232 16H96A8 8 0 0 0 88 24V160A8 8 0 0 0 96 168zM108 192A4 4 0 0 1 110.152 188.452A4.04 4.04 0 0 1 112 188A4 4 0 0 1 114.292 188.724L154.292 216.724A4 4 0 0 1 154.292 223.276L114.292 251.276A4 4 0 0 1 108 248V224H68A52.06000000000001 52.06000000000001 0 0 1 16 172V132A4 4 0 0 1 24 132V172A44.052 44.052 0 0 0 68 216H108z" />
    <glyph glyph-name="blockchain"
      unicode="&#xEA4D;"
      horiz-adv-x="256" d="M132 65.42V13.16C132.096 13.216 132.2 13.232 132.292 13.292L176.292 41.292A8 8 0 0 1 180 48.032V95.952zM124 65.42L76 95.956V48.032A8 8 0 0 1 79.708 41.28L123.708 13.28C123.8 13.22 123.904 13.204 124 13.148zM128 169.228L176 199.764L132.304 227.656A8 8 0 0 1 123.696 227.656L80 199.764zM48 113.776L0 144.312V96.4A8 8 0 0 1 3.708 89.64L47.708 61.64C47.8 61.584 47.904 61.564 48 61.508zM208 113.776L256 144.312V96.4A8 8 0 0 0 252.292 89.652L208.292 61.652C208.2 61.596 208.096 61.576 208 61.52zM188 100.344A8 8 0 0 1 184.304 107.088L152 127.704V144.312L200 113.776V61.516C199.904 61.572 199.8 61.592 199.708 61.648L188 69.096zM52 120.716L100 151.252L56.304 179.144A8 8 0 0 1 47.696 179.144L4 151.252zM68 100.344A8 8 0 0 0 71.696 107.088L104 127.704V144.312L56 113.776V61.516C56.096 61.572 56.2 61.592 56.292 61.648L68 69.096zM128 72.36L176 102.896L132.304 130.8A8 8 0 0 1 123.696 130.8L80 102.896zM56.304 179.144A8 8 0 0 1 47.696 179.144L4 151.252L52 120.716L100 151.252zM199.696 179.144A8 8 0 0 0 208.304 179.144L252 151.252L204 120.716L156 151.252zM104 144.312L56 113.776V61.516C56.096 61.572 56.2 61.592 56.292 61.648L68 69.096V100.344A8 8 0 0 0 71.696 107.088L104 127.704zM108.304 155.448A8 8 0 0 0 112 148.704V132.8L119.392 137.516A16 16 0 0 0 124 139.508V162.288L76 192.824V176.064zM147.696 155.448A8 8 0 0 1 144 148.704V132.8L136.608 137.516A16 16 0 0 1 132 139.508V162.288L180 192.824V176.064zM132.304 130.8A8 8 0 0 1 123.696 130.8L80 102.896L128 72.36L176 102.896z" />
    <glyph glyph-name="traffic"
      unicode="&#xEA4E;"
      horiz-adv-x="256" d="M128 250.6666666666667A122.71466666666667 122.71466666666667 0 0 1 96 246.4V112H117.3333333333333A5.333333333333333 5.333333333333333 0 0 0 121.3813333333333 103.2L89.3813333333333 65.8666666666667A5.333333333333333 5.333333333333333 0 0 0 81.2853333333333 65.8666666666667L49.2853333333333 103.2A5.333333333333333 5.333333333333333 0 0 0 53.3333333333333 112H74.6666666666667V238.4906666666667A122.66666666666664 122.66666666666664 0 0 1 160 9.6V144H138.6666666666667A5.333333333333333 5.333333333333333 0 0 0 134.6186666666667 152.8L166.6186666666667 190.1333333333333A5.498666666666666 5.498666666666666 0 0 0 174.7146666666667 190.1333333333333L206.7146666666667 152.8A5.333333333333333 5.333333333333333 0 0 0 202.6666666666667 144H181.3333333333333V17.5093333333334A122.66666666666664 122.66666666666664 0 0 1 128 250.6666666666667z" />
  </font>
</defs>
</svg>
